<svg width="24" height="24" viewBox="0 0 24 24" fill="none" xmlns="http://www.w3.org/2000/svg">
<path fill-rule="evenodd" clip-rule="evenodd" d="M12 17C16.1121 17 18.5866 13.933 19.683 12.1047C19.7081 12.063 19.7149 12.0278 19.7149 12C19.7149 11.9722 19.7081 11.937 19.683 11.8953C18.5866 10.067 16.1121 7 12 7C7.88795 7 5.41343 10.067 4.317 11.8953C4.29195 11.937 4.2851 11.9722 4.2851 12C4.2851 12.0278 4.29195 12.063 4.317 12.1047C5.41343 13.933 7.88795 17 12 17ZM21.3982 13.1334C20.2099 15.1148 17.215 19 12 19C6.78498 19 3.79008 15.1148 2.60179 13.1334C2.17953 12.4292 2.17953 11.5708 2.6018 10.8666C3.79008 8.88521 6.78498 5 12 5C17.215 5 20.2099 8.88521 21.3982 10.8666C21.8205 11.5708 21.8205 12.4292 21.3982 13.1334Z" fill="#6F767E"/>
<path fill-rule="evenodd" clip-rule="evenodd" d="M12 13C12.5523 13 13 12.5523 13 12C13 11.4477 12.5523 11 12 11C11.4477 11 11 11.4477 11 12C11 12.5523 11.4477 13 12 13ZM12 15C13.6569 15 15 13.6569 15 12C15 10.3431 13.6569 9 12 9C10.3431 9 9 10.3431 9 12C9 13.6569 10.3431 15 12 15Z" fill="#6F767E"/>
</svg>
