<svg width="38" height="38" viewBox="0 0 38 38" fill="none" xmlns="http://www.w3.org/2000/svg">
<path fill-rule="evenodd" clip-rule="evenodd" d="M3.16669 6.33333C3.16669 5.45888 3.87557 4.75 4.75002 4.75H5.44423C7.62385 4.75 9.52377 6.23341 10.0524 8.34795L10.3404 9.5H29.3024C32.3412 9.5 34.5985 12.314 33.9393 15.2804L32.18 23.1971C31.6971 25.3704 29.7695 26.9167 27.5431 26.9167H15.1391C12.9595 26.9167 11.0596 25.4333 10.531 23.3187L6.98029 9.11598C6.80408 8.41114 6.17077 7.91667 5.44423 7.91667H4.75002C3.87557 7.91667 3.16669 7.20778 3.16669 6.33333ZM11.1321 12.6667L13.6031 22.5507C13.7793 23.2555 14.4126 23.75 15.1391 23.75H27.5431C28.2852 23.75 28.9278 23.2346 29.0888 22.5101L30.848 14.5935C31.0678 13.6047 30.3153 12.6667 29.3024 12.6667H11.1321Z" fill="black"/>
<path fill-rule="evenodd" clip-rule="evenodd" d="M15.0417 33.25C16.3534 33.25 17.4167 32.1867 17.4167 30.875C17.4167 29.5633 16.3534 28.5 15.0417 28.5C13.73 28.5 12.6667 29.5633 12.6667 30.875C12.6667 32.1867 13.73 33.25 15.0417 33.25Z" fill="black"/>
<path fill-rule="evenodd" clip-rule="evenodd" d="M27.7083 33.25C29.02 33.25 30.0833 32.1867 30.0833 30.875C30.0833 29.5633 29.02 28.5 27.7083 28.5C26.3966 28.5 25.3333 29.5633 25.3333 30.875C25.3333 32.1867 26.3966 33.25 27.7083 33.25Z" fill="black"/>
</svg>
