<svg width="16" height="16" viewBox="0 0 16 16" fill="none" xmlns="http://www.w3.org/2000/svg">
<g clip-path="url(#clip0_0_407)">
<path d="M8.5978 2.03825C8.48549 1.81069 8.25373 1.66663 7.99997 1.66663C7.74621 1.66663 7.51445 1.81069 7.40215 2.03825L5.71605 5.45466L1.94582 6.0025C1.6947 6.03899 1.48607 6.21489 1.40765 6.45623C1.32923 6.69757 1.39463 6.9625 1.57634 7.13963L4.30451 9.79893L3.66048 13.5539C3.61758 13.804 3.72039 14.0568 3.92569 14.206C4.13099 14.3551 4.40316 14.3748 4.62778 14.2567L7.99997 12.4838L11.3722 14.2567C11.5968 14.3748 11.869 14.3551 12.0743 14.206C12.2796 14.0568 12.3824 13.804 12.3395 13.5539L11.6954 9.79893L14.4236 7.13963C14.6053 6.9625 14.6707 6.69757 14.5923 6.45623C14.5139 6.21489 14.3052 6.03899 14.0541 6.0025L10.2839 5.45466L8.5978 2.03825Z" fill="black"/>
</g>
<defs>
<clipPath id="clip0_0_407">
<rect width="13.3333" height="13.3333" fill="white" transform="translate(1.33333 1.33331)"/>
</clipPath>
</defs>
</svg>
