<svg width="111" height="35" viewBox="0 0 111 35" fill="none" xmlns="http://www.w3.org/2000/svg">
<path fill-rule="evenodd" clip-rule="evenodd" d="M14.2185 1.55032C6.99551 8.97375 0.0700089 18.1795 0.000563813 25.0604C-0.0264832 27.6494 0.91797 29.9096 3.18334 31.6215C6.4436 34.087 10.0357 34.9564 13.6103 34.9615C18.8341 34.9679 24.0212 33.1236 28.0827 31.7015C34.9227 29.3076 110.532 0.572814 110.532 0.572814C111.262 0.252948 111.125 -0.145601 110.212 0.0533548C109.844 0.133961 27.8992 19.5683 27.8992 19.5683C26.347 19.9525 24.7432 20.1535 23.1302 20.1658C16.8326 20.1985 11.2287 17.1393 11.2741 10.6927C11.2916 8.17025 12.1739 5.12833 14.2185 1.55032Z" fill="black"/>
</svg>
