<svg width="16" height="16" viewBox="0 0 16 16" fill="none" xmlns="http://www.w3.org/2000/svg">
<path d="M4.47142 3.52827C4.21107 3.26792 3.78896 3.26792 3.52861 3.52827C3.26826 3.78862 3.26826 4.21073 3.52861 4.47108L7.05717 7.99965L3.52854 11.5283C3.2682 11.7886 3.2682 12.2107 3.52854 12.4711C3.78889 12.7314 4.211 12.7314 4.47135 12.4711L7.99998 8.94245L11.5286 12.4711C11.789 12.7314 12.2111 12.7314 12.4714 12.4711C12.7318 12.2107 12.7318 11.7886 12.4714 11.5283L8.94279 7.99965L12.4714 4.47108C12.7317 4.21073 12.7317 3.78862 12.4714 3.52827C12.211 3.26792 11.7889 3.26792 11.5285 3.52827L7.99998 7.05684L4.47142 3.52827Z" fill="#6F767E"/>
</svg>
