<svg width="24" height="24" viewBox="0 0 24 24" fill="none" xmlns="http://www.w3.org/2000/svg">
<path d="M22.9538 10.1229L20.3077 2.61523H3.69228L1.10767 9.93831V21.6306H22.9538V10.1229ZM4.3692 3.53831H19.6307L21.7846 9.63062H2.21536L4.3692 3.53831ZM21.9692 20.7691H2.03074V10.5537H22.0307L21.9692 20.7691Z" fill="black" stroke="black" stroke-width="0.692308" stroke-linejoin="round"/>
<path d="M15.69 13.2606L15.5974 13.1616C15.3363 12.8823 14.8982 12.8676 14.6189 13.1288C14.6156 13.1318 14.6124 13.1349 14.6092 13.1381L10.6499 16.9873L9.39067 15.7631C9.11652 15.4965 8.67822 15.5027 8.4117 15.7769C8.40856 15.7801 8.40547 15.7833 8.4024 15.7866L8.3098 15.8856C8.05224 16.1611 8.06251 16.592 8.33289 16.8549L10.1673 18.6383C10.436 18.8996 10.8638 18.8996 11.1325 18.6383L15.6669 14.2299C15.9373 13.967 15.9476 13.5361 15.69 13.2606Z" fill="black"/>
<path d="M12.4615 3.69214H11.5385V9.2306H12.4615V3.69214Z" fill="#D8D8D8" stroke="black" stroke-width="0.923077"/>
</svg>
