<svg width="112" height="35" viewBox="0 0 112 35" fill="none" xmlns="http://www.w3.org/2000/svg">
<path id="Vector" fill-rule="evenodd" clip-rule="evenodd" d="M15.0294 1.53864C7.86079 8.90616 0.98745 18.0425 0.918528 24.8717C0.891685 27.4411 1.82902 29.6843 4.07733 31.3833C7.31304 33.8303 10.8781 34.6931 14.4258 34.6982C19.6102 34.7045 24.7583 32.8741 28.7891 31.4627C35.5776 29.0868 110.618 0.568499 110.618 0.568499C111.342 0.251043 111.206 -0.144505 110.3 0.0529529C109.934 0.132952 28.607 19.4209 28.607 19.4209C27.0665 19.8022 25.4748 20.0017 23.8739 20.0139C17.6238 20.0463 12.0621 17.0102 12.1071 10.6122C12.1245 8.10871 13.0002 5.08971 15.0294 1.53864Z" fill="black"/>
</svg>
